<mxfile host="app.diagrams.net" modified="2023-06-12T15:14:37.632Z" agent="Mozilla/5.0 (Macintosh; Intel Mac OS X 10_15_7) AppleWebKit/605.1.15 (KHTML, like Gecko) Version/16.1 Safari/605.1.15" version="21.3.8" etag="a3QoN6rIkXjM9hWc9IJg" type="github">
  <diagram name="第 1 页" id="gmXW29-sWzDKFRihlG9I">
    <mxGraphModel>
      <root>
        <mxCell id="0" />
        <mxCell id="1" parent="0" />
      </root>
    </mxGraphModel>
  </diagram>
</mxfile>
